<mxfile host="app.diagrams.net" modified="2021-12-27T10:42:52.013Z" agent="5.0 (Windows NT 10.0; Win64; x64) AppleWebKit/537.36 (KHTML, like Gecko) Chrome/96.0.4664.110 Safari/537.36" etag="Q00NnXdHq0i8uU00qnFg" version="16.1.0" type="github">
  <diagram name="Page-1" id="52a04d89-c75d-2922-d76d-85b35f80e030">
    <mxGraphModel dx="1162" dy="433" grid="1" gridSize="10" guides="1" tooltips="1" connect="1" arrows="1" fold="1" page="1" pageScale="1" pageWidth="1100" pageHeight="850" background="none" math="0" shadow="0">
      <root>
        <mxCell id="0" />
        <mxCell id="1" parent="0" />
        <mxCell id="PLD4S_zDdn7hhfApeDqY-80" style="edgeStyle=none;rounded=0;orthogonalLoop=1;jettySize=auto;html=1;entryX=0.714;entryY=1.093;entryDx=0;entryDy=0;entryPerimeter=0;fontSize=18;" parent="1" source="21ea969265ad0168-30" target="1fdf3b25b50cf41e-10" edge="1">
          <mxGeometry relative="1" as="geometry" />
        </mxCell>
        <mxCell id="21ea969265ad0168-30" value="Dispatch&lt;br&gt;Record File&lt;br&gt;" style="html=1;rounded=0;shadow=0;comic=0;labelBackgroundColor=none;strokeWidth=2;fontFamily=Verdana;fontSize=12;align=center;shape=mxgraph.ios7ui.horLines;" parent="1" vertex="1">
          <mxGeometry x="617.5" y="670" width="135" height="50" as="geometry" />
        </mxCell>
        <mxCell id="17472293e6e8944d-4" value="Customer&lt;br&gt;Master File" style="html=1;rounded=0;shadow=0;comic=0;labelBackgroundColor=none;strokeWidth=3;fontFamily=Verdana;fontSize=12;align=center;shape=mxgraph.ios7ui.horLines;" parent="1" vertex="1">
          <mxGeometry x="310" y="280" width="140" height="50" as="geometry" />
        </mxCell>
        <mxCell id="PLD4S_zDdn7hhfApeDqY-32" style="edgeStyle=none;rounded=0;orthogonalLoop=1;jettySize=auto;html=1;exitX=0.592;exitY=0;exitDx=0;exitDy=0;exitPerimeter=0;" parent="1" source="17472293e6e8944d-29" edge="1">
          <mxGeometry relative="1" as="geometry">
            <mxPoint x="871" y="420" as="targetPoint" />
          </mxGeometry>
        </mxCell>
        <mxCell id="PLD4S_zDdn7hhfApeDqY-61" style="edgeStyle=none;rounded=0;orthogonalLoop=1;jettySize=auto;html=1;" parent="1" source="17472293e6e8944d-29" edge="1">
          <mxGeometry relative="1" as="geometry">
            <mxPoint x="1050" y="555" as="targetPoint" />
          </mxGeometry>
        </mxCell>
        <mxCell id="PLD4S_zDdn7hhfApeDqY-71" style="edgeStyle=none;rounded=0;orthogonalLoop=1;jettySize=auto;html=1;" parent="1" source="17472293e6e8944d-29" edge="1">
          <mxGeometry relative="1" as="geometry">
            <mxPoint x="860" y="650" as="targetPoint" />
          </mxGeometry>
        </mxCell>
        <mxCell id="17472293e6e8944d-29" value="Local Store" style="whiteSpace=wrap;html=1;rounded=0;shadow=0;comic=0;labelBackgroundColor=none;strokeWidth=1;fontFamily=Verdana;fontSize=12;align=center;" parent="1" vertex="1">
          <mxGeometry x="800" y="530" width="120" height="50" as="geometry" />
        </mxCell>
        <mxCell id="1fdf3b25b50cf41e-27" style="edgeStyle=none;html=1;labelBackgroundColor=none;startFill=0;startSize=8;endFill=1;endSize=8;fontFamily=Verdana;fontSize=12;entryX=0.014;entryY=0;entryDx=0;entryDy=0;entryPerimeter=0;" parent="1" source="17472293e6e8944d-30" target="1fdf3b25b50cf41e-2" edge="1">
          <mxGeometry relative="1" as="geometry" />
        </mxCell>
        <mxCell id="PLD4S_zDdn7hhfApeDqY-9" style="edgeStyle=none;rounded=0;orthogonalLoop=1;jettySize=auto;html=1;entryX=0.3;entryY=0.011;entryDx=0;entryDy=0;entryPerimeter=0;" parent="1" source="17472293e6e8944d-30" target="PLD4S_zDdn7hhfApeDqY-7" edge="1">
          <mxGeometry relative="1" as="geometry">
            <mxPoint x="120" y="250" as="targetPoint" />
          </mxGeometry>
        </mxCell>
        <mxCell id="17472293e6e8944d-30" value="Customer" style="whiteSpace=wrap;html=1;rounded=0;shadow=0;comic=0;labelBackgroundColor=none;strokeWidth=1;fontFamily=Verdana;fontSize=12;align=center;" parent="1" vertex="1">
          <mxGeometry x="60" y="55" width="120" height="50" as="geometry" />
        </mxCell>
        <mxCell id="1fdf3b25b50cf41e-1" value="1" style="swimlane;html=1;fontStyle=0;childLayout=stackLayout;horizontal=1;startSize=26;fillColor=#e0e0e0;horizontalStack=0;resizeParent=1;resizeLast=0;collapsible=1;marginBottom=0;swimlaneFillColor=#ffffff;align=center;rounded=1;shadow=0;comic=0;labelBackgroundColor=none;strokeWidth=1;fontFamily=Verdana;fontSize=12" parent="1" vertex="1">
          <mxGeometry x="430" y="54" width="140" height="90" as="geometry" />
        </mxCell>
        <mxCell id="1fdf3b25b50cf41e-2" value="Customer&lt;br&gt;Order" style="text;html=1;strokeColor=none;fillColor=none;spacingLeft=4;spacingRight=4;whiteSpace=wrap;overflow=hidden;rotatable=0;points=[[0,0.5],[1,0.5]];portConstraint=eastwest;align=center;" parent="1fdf3b25b50cf41e-1" vertex="1">
          <mxGeometry y="26" width="140" height="64" as="geometry" />
        </mxCell>
        <mxCell id="PLD4S_zDdn7hhfApeDqY-52" style="edgeStyle=none;rounded=0;orthogonalLoop=1;jettySize=auto;html=1;exitX=0.014;exitY=0.315;exitDx=0;exitDy=0;exitPerimeter=0;" parent="1" source="1fdf3b25b50cf41e-10" edge="1">
          <mxGeometry relative="1" as="geometry">
            <mxPoint x="180" y="543" as="targetPoint" />
          </mxGeometry>
        </mxCell>
        <mxCell id="1fdf3b25b50cf41e-9" value="3" style="swimlane;html=1;fontStyle=0;childLayout=stackLayout;horizontal=1;startSize=26;fillColor=#e0e0e0;horizontalStack=0;resizeParent=1;resizeLast=0;collapsible=1;marginBottom=0;swimlaneFillColor=#ffffff;align=center;rounded=1;shadow=0;comic=0;labelBackgroundColor=none;strokeWidth=1;fontFamily=Verdana;fontSize=12" parent="1" vertex="1">
          <mxGeometry x="430" y="500" width="140" height="80" as="geometry" />
        </mxCell>
        <mxCell id="1fdf3b25b50cf41e-10" value="Print" style="text;html=1;strokeColor=none;fillColor=none;spacingLeft=4;spacingRight=4;whiteSpace=wrap;overflow=hidden;rotatable=0;points=[[0,0.5],[1,0.5]];portConstraint=eastwest;align=center;" parent="1fdf3b25b50cf41e-9" vertex="1">
          <mxGeometry y="26" width="140" height="54" as="geometry" />
        </mxCell>
        <mxCell id="PLD4S_zDdn7hhfApeDqY-7" value="2" style="swimlane;html=1;fontStyle=0;childLayout=stackLayout;horizontal=1;startSize=26;fillColor=#e0e0e0;horizontalStack=0;resizeParent=1;resizeLast=0;collapsible=1;marginBottom=0;swimlaneFillColor=#ffffff;align=center;rounded=1;shadow=0;comic=0;labelBackgroundColor=none;strokeWidth=1;fontFamily=Verdana;fontSize=12" parent="1" vertex="1">
          <mxGeometry x="80" y="240" width="140" height="90" as="geometry" />
        </mxCell>
        <mxCell id="PLD4S_zDdn7hhfApeDqY-8" value="Customer&lt;br&gt;Record" style="text;html=1;strokeColor=none;fillColor=none;spacingLeft=4;spacingRight=4;whiteSpace=wrap;overflow=hidden;rotatable=0;points=[[0,0.5],[1,0.5]];portConstraint=eastwest;align=center;" parent="PLD4S_zDdn7hhfApeDqY-7" vertex="1">
          <mxGeometry y="26" width="140" height="64" as="geometry" />
        </mxCell>
        <mxCell id="PLD4S_zDdn7hhfApeDqY-10" value="Customer Order" style="text;html=1;align=center;verticalAlign=middle;resizable=0;points=[];autosize=1;strokeColor=none;fillColor=none;" parent="1" vertex="1">
          <mxGeometry x="240" y="57" width="100" height="20" as="geometry" />
        </mxCell>
        <mxCell id="PLD4S_zDdn7hhfApeDqY-11" style="edgeStyle=none;rounded=0;orthogonalLoop=1;jettySize=auto;html=1;entryX=1;entryY=0.75;entryDx=0;entryDy=0;" parent="1" target="17472293e6e8944d-30" edge="1">
          <mxGeometry relative="1" as="geometry">
            <mxPoint x="430" y="93" as="sourcePoint" />
          </mxGeometry>
        </mxCell>
        <mxCell id="PLD4S_zDdn7hhfApeDqY-13" value="Total Cost" style="text;html=1;align=center;verticalAlign=middle;resizable=0;points=[];autosize=1;strokeColor=none;fillColor=none;" parent="1" vertex="1">
          <mxGeometry x="255" y="100" width="70" height="20" as="geometry" />
        </mxCell>
        <mxCell id="PLD4S_zDdn7hhfApeDqY-14" value="Customer&lt;br&gt;Details" style="text;html=1;align=center;verticalAlign=middle;resizable=0;points=[];autosize=1;strokeColor=none;fillColor=none;" parent="1" vertex="1">
          <mxGeometry x="115" y="165" width="70" height="30" as="geometry" />
        </mxCell>
        <mxCell id="PLD4S_zDdn7hhfApeDqY-15" style="edgeStyle=none;rounded=0;orthogonalLoop=1;jettySize=auto;html=1;" parent="1" source="PLD4S_zDdn7hhfApeDqY-8" edge="1">
          <mxGeometry relative="1" as="geometry">
            <mxPoint x="300" y="298" as="targetPoint" />
          </mxGeometry>
        </mxCell>
        <mxCell id="PLD4S_zDdn7hhfApeDqY-16" value="D1" style="rounded=0;whiteSpace=wrap;html=1;shadow=0;" parent="1" vertex="1">
          <mxGeometry x="310" y="280" width="30" height="50" as="geometry" />
        </mxCell>
        <mxCell id="PLD4S_zDdn7hhfApeDqY-18" value="&lt;span&gt;Customer&lt;/span&gt;&lt;br&gt;&lt;span&gt;Record&lt;br&gt;update&lt;br&gt;&lt;/span&gt;" style="text;html=1;align=center;verticalAlign=middle;resizable=0;points=[];autosize=1;strokeColor=none;fillColor=none;" parent="1" vertex="1">
          <mxGeometry x="365" y="185" width="70" height="50" as="geometry" />
        </mxCell>
        <mxCell id="PLD4S_zDdn7hhfApeDqY-19" value="&lt;span&gt;Customer&lt;/span&gt;&lt;br&gt;&lt;span&gt;Record&lt;/span&gt;" style="text;html=1;align=center;verticalAlign=middle;resizable=0;points=[];autosize=1;strokeColor=none;fillColor=none;" parent="1" vertex="1">
          <mxGeometry x="225" y="265" width="70" height="30" as="geometry" />
        </mxCell>
        <mxCell id="PLD4S_zDdn7hhfApeDqY-28" style="edgeStyle=none;rounded=0;orthogonalLoop=1;jettySize=auto;html=1;entryX=0.5;entryY=0;entryDx=0;entryDy=0;" parent="1" source="PLD4S_zDdn7hhfApeDqY-20" target="1fdf3b25b50cf41e-9" edge="1">
          <mxGeometry relative="1" as="geometry" />
        </mxCell>
        <mxCell id="PLD4S_zDdn7hhfApeDqY-20" value="Order&amp;nbsp;&lt;br&gt;Record File" style="html=1;rounded=0;shadow=0;comic=0;labelBackgroundColor=none;strokeWidth=3;fontFamily=Verdana;fontSize=12;align=center;shape=mxgraph.ios7ui.horLines;" parent="1" vertex="1">
          <mxGeometry x="532.5" y="255" width="140" height="50" as="geometry" />
        </mxCell>
        <mxCell id="PLD4S_zDdn7hhfApeDqY-21" value="D2" style="rounded=0;whiteSpace=wrap;html=1;shadow=0;" parent="1" vertex="1">
          <mxGeometry x="532.5" y="255" width="30" height="50" as="geometry" />
        </mxCell>
        <mxCell id="PLD4S_zDdn7hhfApeDqY-23" value="&lt;span style=&quot;font-family: &amp;#34;verdana&amp;#34;&quot;&gt;Order&amp;nbsp;&lt;/span&gt;&lt;br style=&quot;font-family: &amp;#34;verdana&amp;#34;&quot;&gt;&lt;span style=&quot;font-family: &amp;#34;verdana&amp;#34;&quot;&gt;Record&lt;/span&gt;" style="text;html=1;align=center;verticalAlign=middle;resizable=0;points=[];autosize=1;strokeColor=none;fillColor=none;" parent="1" vertex="1">
          <mxGeometry x="580" y="190" width="60" height="30" as="geometry" />
        </mxCell>
        <mxCell id="PLD4S_zDdn7hhfApeDqY-24" value="" style="endArrow=classic;startArrow=classic;html=1;rounded=0;entryX=0.471;entryY=0;entryDx=0;entryDy=0;entryPerimeter=0;exitX=0.786;exitY=0.938;exitDx=0;exitDy=0;exitPerimeter=0;" parent="1" source="1fdf3b25b50cf41e-2" target="PLD4S_zDdn7hhfApeDqY-20" edge="1">
          <mxGeometry width="50" height="50" relative="1" as="geometry">
            <mxPoint x="540" y="150" as="sourcePoint" />
            <mxPoint x="620" y="270" as="targetPoint" />
          </mxGeometry>
        </mxCell>
        <mxCell id="PLD4S_zDdn7hhfApeDqY-25" value="" style="endArrow=classic;startArrow=classic;html=1;rounded=0;exitX=0.579;exitY=-0.02;exitDx=0;exitDy=0;exitPerimeter=0;" parent="1" source="17472293e6e8944d-4" edge="1">
          <mxGeometry width="50" height="50" relative="1" as="geometry">
            <mxPoint x="512.49" y="288.99" as="sourcePoint" />
            <mxPoint x="487.51" y="144" as="targetPoint" />
          </mxGeometry>
        </mxCell>
        <mxCell id="PLD4S_zDdn7hhfApeDqY-29" value="Order&lt;br&gt;Record" style="text;html=1;align=center;verticalAlign=middle;resizable=0;points=[];autosize=1;strokeColor=none;fillColor=none;" parent="1" vertex="1">
          <mxGeometry x="482.5" y="380" width="50" height="30" as="geometry" />
        </mxCell>
        <mxCell id="PLD4S_zDdn7hhfApeDqY-30" style="edgeStyle=none;rounded=0;orthogonalLoop=1;jettySize=auto;html=1;" parent="1" source="1fdf3b25b50cf41e-10" edge="1">
          <mxGeometry relative="1" as="geometry">
            <mxPoint x="790" y="553" as="targetPoint" />
          </mxGeometry>
        </mxCell>
        <mxCell id="PLD4S_zDdn7hhfApeDqY-31" value="Order&lt;br&gt;Record" style="text;html=1;align=center;verticalAlign=middle;resizable=0;points=[];autosize=1;strokeColor=none;fillColor=none;" parent="1" vertex="1">
          <mxGeometry x="630" y="515" width="50" height="30" as="geometry" />
        </mxCell>
        <mxCell id="PLD4S_zDdn7hhfApeDqY-37" style="edgeStyle=none;rounded=0;orthogonalLoop=1;jettySize=auto;html=1;" parent="1" source="PLD4S_zDdn7hhfApeDqY-33" edge="1">
          <mxGeometry relative="1" as="geometry">
            <mxPoint x="860" y="250" as="targetPoint" />
          </mxGeometry>
        </mxCell>
        <mxCell id="PLD4S_zDdn7hhfApeDqY-66" style="edgeStyle=none;rounded=0;orthogonalLoop=1;jettySize=auto;html=1;" parent="1" source="PLD4S_zDdn7hhfApeDqY-33" target="17472293e6e8944d-29" edge="1">
          <mxGeometry relative="1" as="geometry" />
        </mxCell>
        <mxCell id="PLD4S_zDdn7hhfApeDqY-33" value="4" style="swimlane;html=1;fontStyle=0;childLayout=stackLayout;horizontal=1;startSize=26;fillColor=#e0e0e0;horizontalStack=0;resizeParent=1;resizeLast=0;collapsible=1;marginBottom=0;swimlaneFillColor=#ffffff;align=center;rounded=1;shadow=0;comic=0;labelBackgroundColor=none;strokeWidth=1;fontFamily=Verdana;fontSize=12" parent="1" vertex="1">
          <mxGeometry x="790" y="330" width="140" height="90" as="geometry" />
        </mxCell>
        <mxCell id="PLD4S_zDdn7hhfApeDqY-34" value="Pick&lt;br&gt;Items from shelves" style="text;html=1;strokeColor=none;fillColor=none;spacingLeft=4;spacingRight=4;whiteSpace=wrap;overflow=hidden;rotatable=0;points=[[0,0.5],[1,0.5]];portConstraint=eastwest;align=center;" parent="PLD4S_zDdn7hhfApeDqY-33" vertex="1">
          <mxGeometry y="26" width="140" height="54" as="geometry" />
        </mxCell>
        <mxCell id="PLD4S_zDdn7hhfApeDqY-36" value="Printed&lt;br&gt;Order&lt;br&gt;list" style="text;html=1;align=center;verticalAlign=middle;resizable=0;points=[];autosize=1;strokeColor=none;fillColor=none;" parent="1" vertex="1">
          <mxGeometry x="870" y="450" width="50" height="50" as="geometry" />
        </mxCell>
        <mxCell id="PLD4S_zDdn7hhfApeDqY-41" style="edgeStyle=none;rounded=0;orthogonalLoop=1;jettySize=auto;html=1;" parent="1" source="PLD4S_zDdn7hhfApeDqY-38" edge="1">
          <mxGeometry relative="1" as="geometry">
            <mxPoint x="860" y="130" as="targetPoint" />
          </mxGeometry>
        </mxCell>
        <mxCell id="PLD4S_zDdn7hhfApeDqY-65" style="edgeStyle=none;rounded=0;orthogonalLoop=1;jettySize=auto;html=1;entryX=0.421;entryY=-0.012;entryDx=0;entryDy=0;entryPerimeter=0;" parent="1" target="PLD4S_zDdn7hhfApeDqY-33" edge="1">
          <mxGeometry relative="1" as="geometry">
            <mxPoint x="849" y="250" as="sourcePoint" />
          </mxGeometry>
        </mxCell>
        <mxCell id="PLD4S_zDdn7hhfApeDqY-81" style="edgeStyle=none;rounded=0;orthogonalLoop=1;jettySize=auto;html=1;fontSize=18;exitX=0.167;exitY=1.04;exitDx=0;exitDy=0;exitPerimeter=0;" parent="1" source="17472293e6e8944d-29" target="21ea969265ad0168-30" edge="1">
          <mxGeometry relative="1" as="geometry" />
        </mxCell>
        <mxCell id="PLD4S_zDdn7hhfApeDqY-38" value="Saman Store&lt;br&gt;Employee" style="whiteSpace=wrap;html=1;rounded=0;shadow=0;comic=0;labelBackgroundColor=none;strokeWidth=1;fontFamily=Verdana;fontSize=12;align=center;" parent="1" vertex="1">
          <mxGeometry x="800" y="195" width="120" height="50" as="geometry" />
        </mxCell>
        <mxCell id="PLD4S_zDdn7hhfApeDqY-40" value="Printed&lt;br&gt;Order&lt;br&gt;list" style="text;html=1;align=center;verticalAlign=middle;resizable=0;points=[];autosize=1;strokeColor=none;fillColor=none;" parent="1" vertex="1">
          <mxGeometry x="855" y="275" width="50" height="50" as="geometry" />
        </mxCell>
        <mxCell id="PLD4S_zDdn7hhfApeDqY-45" style="edgeStyle=none;rounded=0;orthogonalLoop=1;jettySize=auto;html=1;" parent="1" edge="1">
          <mxGeometry relative="1" as="geometry">
            <mxPoint x="1050" y="80" as="targetPoint" />
            <mxPoint x="930" y="80" as="sourcePoint" />
          </mxGeometry>
        </mxCell>
        <mxCell id="PLD4S_zDdn7hhfApeDqY-64" style="edgeStyle=none;rounded=0;orthogonalLoop=1;jettySize=auto;html=1;entryX=0.375;entryY=0.02;entryDx=0;entryDy=0;entryPerimeter=0;" parent="1" target="PLD4S_zDdn7hhfApeDqY-38" edge="1">
          <mxGeometry relative="1" as="geometry">
            <mxPoint x="845" y="130" as="sourcePoint" />
          </mxGeometry>
        </mxCell>
        <mxCell id="PLD4S_zDdn7hhfApeDqY-42" value="5" style="swimlane;html=1;fontStyle=0;childLayout=stackLayout;horizontal=1;startSize=26;fillColor=#e0e0e0;horizontalStack=0;resizeParent=1;resizeLast=0;collapsible=1;marginBottom=0;swimlaneFillColor=#ffffff;align=center;rounded=1;shadow=0;comic=0;labelBackgroundColor=none;strokeWidth=1;fontFamily=Verdana;fontSize=12" parent="1" vertex="1">
          <mxGeometry x="790" y="40" width="140" height="90" as="geometry" />
        </mxCell>
        <mxCell id="PLD4S_zDdn7hhfApeDqY-43" value="Packing&lt;br&gt;" style="text;html=1;strokeColor=none;fillColor=none;spacingLeft=4;spacingRight=4;whiteSpace=wrap;overflow=hidden;rotatable=0;points=[[0,0.5],[1,0.5]];portConstraint=eastwest;align=center;" parent="PLD4S_zDdn7hhfApeDqY-42" vertex="1">
          <mxGeometry y="26" width="140" height="54" as="geometry" />
        </mxCell>
        <mxCell id="PLD4S_zDdn7hhfApeDqY-44" value="Packing&lt;br&gt;order" style="text;html=1;align=center;verticalAlign=middle;resizable=0;points=[];autosize=1;strokeColor=none;fillColor=none;" parent="1" vertex="1">
          <mxGeometry x="860" y="145" width="60" height="30" as="geometry" />
        </mxCell>
        <mxCell id="PLD4S_zDdn7hhfApeDqY-46" value="Ready Order&lt;br&gt;Email" style="text;html=1;align=center;verticalAlign=middle;resizable=0;points=[];autosize=1;strokeColor=none;fillColor=none;" parent="1" vertex="1">
          <mxGeometry x="950" y="47" width="80" height="30" as="geometry" />
        </mxCell>
        <mxCell id="PLD4S_zDdn7hhfApeDqY-47" value="Customer" style="whiteSpace=wrap;html=1;rounded=0;shadow=0;comic=0;labelBackgroundColor=none;strokeWidth=1;fontFamily=Verdana;fontSize=12;align=center;" parent="1" vertex="1">
          <mxGeometry x="1050" y="54" width="120" height="50" as="geometry" />
        </mxCell>
        <mxCell id="PLD4S_zDdn7hhfApeDqY-51" value="Dispatch&lt;br&gt;Note" style="text;html=1;align=center;verticalAlign=middle;resizable=0;points=[];autosize=1;strokeColor=none;fillColor=none;" parent="1" vertex="1">
          <mxGeometry x="510" y="640" width="60" height="30" as="geometry" />
        </mxCell>
        <mxCell id="PLD4S_zDdn7hhfApeDqY-53" value="Customer" style="whiteSpace=wrap;html=1;rounded=0;shadow=0;comic=0;labelBackgroundColor=none;strokeWidth=1;fontFamily=Verdana;fontSize=12;align=center;" parent="1" vertex="1">
          <mxGeometry x="60" y="515" width="120" height="50" as="geometry" />
        </mxCell>
        <mxCell id="PLD4S_zDdn7hhfApeDqY-55" value="Dispatch&lt;br&gt;Note" style="text;html=1;align=center;verticalAlign=middle;resizable=0;points=[];autosize=1;strokeColor=none;fillColor=none;" parent="1" vertex="1">
          <mxGeometry x="260" y="515" width="60" height="30" as="geometry" />
        </mxCell>
        <mxCell id="PLD4S_zDdn7hhfApeDqY-56" value="D3" style="rounded=0;whiteSpace=wrap;html=1;shadow=0;" parent="1" vertex="1">
          <mxGeometry x="610" y="670" width="30" height="50" as="geometry" />
        </mxCell>
        <mxCell id="PLD4S_zDdn7hhfApeDqY-62" value="Customer" style="whiteSpace=wrap;html=1;rounded=0;shadow=0;comic=0;labelBackgroundColor=none;strokeWidth=1;fontFamily=Verdana;fontSize=12;align=center;" parent="1" vertex="1">
          <mxGeometry x="1050" y="530" width="120" height="50" as="geometry" />
        </mxCell>
        <mxCell id="PLD4S_zDdn7hhfApeDqY-63" value="Pick Item" style="text;html=1;align=center;verticalAlign=middle;resizable=0;points=[];autosize=1;strokeColor=none;fillColor=none;" parent="1" vertex="1">
          <mxGeometry x="940" y="530" width="60" height="20" as="geometry" />
        </mxCell>
        <mxCell id="PLD4S_zDdn7hhfApeDqY-67" value="Packing&lt;br&gt;item" style="text;html=1;align=center;verticalAlign=middle;resizable=0;points=[];autosize=1;strokeColor=none;fillColor=none;" parent="1" vertex="1">
          <mxGeometry x="790" y="145" width="60" height="30" as="geometry" />
        </mxCell>
        <mxCell id="PLD4S_zDdn7hhfApeDqY-68" value="&lt;span&gt;Pick&lt;/span&gt;&lt;br&gt;&lt;span&gt;Item&lt;/span&gt;" style="text;html=1;align=center;verticalAlign=middle;resizable=0;points=[];autosize=1;strokeColor=none;fillColor=none;" parent="1" vertex="1">
          <mxGeometry x="800" y="280" width="40" height="30" as="geometry" />
        </mxCell>
        <mxCell id="PLD4S_zDdn7hhfApeDqY-69" value="&lt;span style=&quot;color: rgba(0 , 0 , 0 , 0) ; font-family: monospace ; font-size: 0px&quot;&gt;%3CmxGraphModel%3E%3Croot%3E%3CmxCell%20id%3D%220%22%2F%3E%3CmxCell%20id%3D%221%22%20parent%3D%220%22%2F%3E%3CmxCell%20id%3D%222%22%20value%3D%22%26lt%3Bspan%26gt%3BPick%26lt%3B%2Fspan%26gt%3B%26lt%3Bbr%26gt%3B%26lt%3Bspan%26gt%3BItem%26lt%3B%2Fspan%26gt%3B%22%20style%3D%22text%3Bhtml%3D1%3Balign%3Dcenter%3BverticalAlign%3Dmiddle%3Bresizable%3D0%3Bpoints%3D%5B%5D%3Bautosize%3D1%3BstrokeColor%3Dnone%3BfillColor%3Dnone%3B%22%20vertex%3D%221%22%20parent%3D%221%22%3E%3CmxGeometry%20x%3D%22800%22%20y%3D%22280%22%20width%3D%2240%22%20height%3D%2230%22%20as%3D%22geometry%22%2F%3E%3C%2FmxCell%3E%3C%2Froot%3E%3C%2FmxGraphModel%3&lt;/span&gt;" style="text;html=1;align=center;verticalAlign=middle;resizable=0;points=[];autosize=1;strokeColor=none;fillColor=none;" parent="1" vertex="1">
          <mxGeometry x="810" y="450" width="20" height="20" as="geometry" />
        </mxCell>
        <mxCell id="PLD4S_zDdn7hhfApeDqY-70" value="&lt;span&gt;Pick&lt;/span&gt;&lt;br&gt;&lt;span&gt;Item&lt;/span&gt;" style="text;html=1;align=center;verticalAlign=middle;resizable=0;points=[];autosize=1;strokeColor=none;fillColor=none;" parent="1" vertex="1">
          <mxGeometry x="815" y="460" width="40" height="30" as="geometry" />
        </mxCell>
        <mxCell id="PLD4S_zDdn7hhfApeDqY-72" value="6" style="swimlane;html=1;fontStyle=0;childLayout=stackLayout;horizontal=1;startSize=26;fillColor=#e0e0e0;horizontalStack=0;resizeParent=1;resizeLast=0;collapsible=1;marginBottom=0;swimlaneFillColor=#ffffff;align=center;rounded=1;shadow=0;comic=0;labelBackgroundColor=none;strokeWidth=1;fontFamily=Verdana;fontSize=12" parent="1" vertex="1">
          <mxGeometry x="800" y="660" width="140" height="90" as="geometry" />
        </mxCell>
        <mxCell id="PLD4S_zDdn7hhfApeDqY-73" value="Sales&lt;br&gt;Department" style="text;html=1;strokeColor=none;fillColor=none;spacingLeft=4;spacingRight=4;whiteSpace=wrap;overflow=hidden;rotatable=0;points=[[0,0.5],[1,0.5]];portConstraint=eastwest;align=center;" parent="PLD4S_zDdn7hhfApeDqY-72" vertex="1">
          <mxGeometry y="26" width="140" height="54" as="geometry" />
        </mxCell>
        <mxCell id="PLD4S_zDdn7hhfApeDqY-74" style="edgeStyle=none;rounded=0;orthogonalLoop=1;jettySize=auto;html=1;" parent="1" source="PLD4S_zDdn7hhfApeDqY-73" edge="1">
          <mxGeometry relative="1" as="geometry">
            <mxPoint x="1050" y="713" as="targetPoint" />
          </mxGeometry>
        </mxCell>
        <mxCell id="PLD4S_zDdn7hhfApeDqY-75" value="Sales Report&lt;br&gt;details" style="text;html=1;align=center;verticalAlign=middle;resizable=0;points=[];autosize=1;strokeColor=none;fillColor=none;" parent="1" vertex="1">
          <mxGeometry x="870" y="610" width="80" height="30" as="geometry" />
        </mxCell>
        <mxCell id="PLD4S_zDdn7hhfApeDqY-76" value="Sales Report" style="text;html=1;align=center;verticalAlign=middle;resizable=0;points=[];autosize=1;strokeColor=none;fillColor=none;" parent="1" vertex="1">
          <mxGeometry x="950" y="690" width="80" height="20" as="geometry" />
        </mxCell>
        <mxCell id="PLD4S_zDdn7hhfApeDqY-77" value="Local Store Manager" style="whiteSpace=wrap;html=1;rounded=0;shadow=0;comic=0;labelBackgroundColor=none;strokeWidth=1;fontFamily=Verdana;fontSize=12;align=center;" parent="1" vertex="1">
          <mxGeometry x="1060" y="690" width="120" height="50" as="geometry" />
        </mxCell>
        <mxCell id="PLD4S_zDdn7hhfApeDqY-78" value="&lt;font style=&quot;font-size: 18px&quot;&gt;&lt;i&gt;&lt;b&gt;1 Level DFD&lt;/b&gt;&lt;/i&gt;&lt;/font&gt;" style="text;html=1;align=center;verticalAlign=middle;resizable=0;points=[];autosize=1;strokeColor=none;fillColor=none;" parent="1" vertex="1">
          <mxGeometry x="530" y="800" width="120" height="20" as="geometry" />
        </mxCell>
        <mxCell id="PLD4S_zDdn7hhfApeDqY-83" value="&lt;span style=&quot;font-size: 12px&quot;&gt;Dispatch&lt;br&gt;&lt;/span&gt;&lt;font style=&quot;font-size: 12px&quot;&gt;item&lt;/font&gt;" style="text;html=1;align=center;verticalAlign=middle;resizable=0;points=[];autosize=1;strokeColor=none;fillColor=none;fontSize=18;" parent="1" vertex="1">
          <mxGeometry x="720" y="590" width="60" height="50" as="geometry" />
        </mxCell>
      </root>
    </mxGraphModel>
  </diagram>
</mxfile>
